<svg xmlns="http://www.w3.org/2000/svg" xmlns:xlink="http://www.w3.org/1999/xlink" width="500" zoomAndPan="magnify" viewBox="0 0 375 374.999991" height="500" preserveAspectRatio="xMidYMid meet" version="1.0"><defs><g/><clipPath id="id1"><path d="M 150 100 L 225.460938 100 L 225.460938 194 L 150 194 Z M 150 100 " clip-rule="nonzero"/></clipPath></defs><g fill="#11101b" fill-opacity="1"><g transform="translate(104.292739, 232.971021)"><g><path d="M 16.007812 0.59375 C 21.929688 0.59375 28.117188 -2.816406 29.40625 -10.25 L 24.199219 -10.25 C 23.117188 -5.984375 19.808594 -4.082031 15.867188 -4.082031 C 10.617188 -4.082031 6.433594 -7.882812 6.433594 -13.90625 C 6.433594 -19.828125 10.617188 -23.769531 15.867188 -23.769531 C 19.828125 -23.769531 23.117188 -21.847656 24.21875 -17.582031 L 29.40625 -17.582031 C 28.117188 -24.992188 21.871094 -28.425781 16.007812 -28.425781 C 7.820312 -28.425781 1.347656 -21.992188 1.347656 -13.925781 C 1.347656 -5.859375 7.820312 0.59375 16.007812 0.59375 Z M 16.007812 0.59375 "/></g></g></g><g fill="#11101b" fill-opacity="1"><g transform="translate(135.06004, 232.971021)"><g><path d="M 4.535156 7.167969 C 9.1875 7.167969 11.3125 5.800781 13.785156 -0.46875 L 21.972656 -20.992188 L 16.703125 -20.972656 L 11.84375 -8.269531 L 11.292969 -6.125 L 10.761719 -8.289062 L 5.820312 -20.992188 L 0.613281 -20.992188 L 8.65625 -0.980469 L 8.414062 -0.265625 C 7.535156 2.042969 6.699219 3.082031 4.492188 3.082031 L 1 3.082031 L 1 7.167969 Z M 4.535156 7.167969 "/></g></g></g><g fill="#11101b" fill-opacity="1"><g transform="translate(157.21168, 232.971021)"><g><path d="M 7.839844 0 L 7.839844 -9.761719 C 7.839844 -14.234375 10.148438 -16.746094 13.539062 -16.746094 L 15.519531 -16.746094 L 15.519531 -20.992188 L 13.273438 -20.992188 C 10.535156 -20.992188 8.617188 -19.5 7.636719 -17.195312 L 7.636719 -20.992188 L 2.898438 -20.992188 L 2.898438 0 Z M 7.839844 0 "/></g></g></g><g fill="#11101b" fill-opacity="1"><g transform="translate(173.360941, 232.971021)"><g><path d="M 16.007812 0.59375 C 21.929688 0.59375 28.117188 -2.816406 29.40625 -10.25 L 24.199219 -10.25 C 23.117188 -5.984375 19.808594 -4.082031 15.867188 -4.082031 C 10.617188 -4.082031 6.433594 -7.882812 6.433594 -13.90625 C 6.433594 -19.828125 10.617188 -23.769531 15.867188 -23.769531 C 19.828125 -23.769531 23.117188 -21.847656 24.21875 -17.582031 L 29.40625 -17.582031 C 28.117188 -24.992188 21.871094 -28.425781 16.007812 -28.425781 C 7.820312 -28.425781 1.347656 -21.992188 1.347656 -13.925781 C 1.347656 -5.859375 7.820312 0.59375 16.007812 0.59375 Z M 16.007812 0.59375 "/></g></g></g><g fill="#11101b" fill-opacity="1"><g transform="translate(204.128242, 232.971021)"><g><path d="M 7.839844 0 L 7.839844 -9.761719 C 7.839844 -14.234375 10.148438 -16.746094 13.539062 -16.746094 L 15.519531 -16.746094 L 15.519531 -20.992188 L 13.273438 -20.992188 C 10.535156 -20.992188 8.617188 -19.5 7.636719 -17.195312 L 7.636719 -20.992188 L 2.898438 -20.992188 L 2.898438 0 Z M 7.839844 0 "/></g></g></g><g fill="#11101b" fill-opacity="1"><g transform="translate(220.277503, 232.971021)"><g><path d="M 22.871094 -10.863281 C 22.871094 -16.640625 18.621094 -21.625 12.292969 -21.625 C 5.984375 -21.625 1.410156 -16.621094 1.410156 -10.496094 C 1.410156 -4.371094 5.984375 0.632812 12.292969 0.632812 C 17.519531 0.632812 21.257812 -2.816406 22.320312 -6.59375 L 16.929688 -6.59375 C 16.214844 -4.820312 14.683594 -3.777344 12.191406 -3.777344 C 9.292969 -3.777344 6.882812 -5.757812 6.371094 -9.1875 L 22.769531 -9.1875 C 22.851562 -9.964844 22.871094 -10.332031 22.871094 -10.863281 Z M 6.574219 -13.007812 C 7.414062 -15.96875 9.78125 -17.316406 12.273438 -17.316406 C 15.171875 -17.316406 17.621094 -15.355469 17.828125 -13.007812 Z M 6.574219 -13.007812 "/></g></g></g><g fill="#11101b" fill-opacity="1"><g transform="translate(244.266607, 232.971021)"><g><path d="M 11.292969 0.632812 C 14.703125 0.632812 17.480469 -0.917969 18.847656 -3.53125 L 18.847656 0 L 23.542969 0 L 23.542969 -20.992188 L 18.847656 -20.992188 L 18.847656 -17.4375 C 17.5 -20.050781 14.703125 -21.625 11.273438 -21.625 C 5.65625 -21.625 1.410156 -16.621094 1.410156 -10.496094 C 1.410156 -4.328125 5.617188 0.632812 11.292969 0.632812 Z M 12.476562 -3.941406 C 9.148438 -3.941406 6.308594 -6.410156 6.308594 -10.496094 C 6.308594 -14.4375 9.085938 -17.050781 12.476562 -17.050781 C 15.90625 -17.050781 18.644531 -14.152344 18.644531 -10.496094 C 18.644531 -6.78125 15.925781 -3.941406 12.476562 -3.941406 Z M 12.476562 -3.941406 "/></g></g></g><g fill="#11101b" fill-opacity="1"><g transform="translate(94.29289, 254.203577)"><g><path d="M 2.546875 -1.296875 L 6.21875 -1.296875 L 6.21875 0 L 1.109375 0 L 1.109375 -8.46875 L 2.546875 -8.46875 Z M 2.546875 -1.296875 "/></g></g></g><g fill="#11101b" fill-opacity="1"><g transform="translate(102.966292, 254.203577)"><g><path d="M 6.59375 -1.90625 L 2.3125 -1.90625 L 1.5 0 L 0.015625 0 L 3.75 -8.46875 L 5.21875 -8.46875 L 8.921875 0 L 7.40625 0 Z M 6.046875 -3.1875 L 4.4375 -6.953125 L 2.84375 -3.1875 Z M 6.046875 -3.1875 "/></g></g></g><g fill="#11101b" fill-opacity="1"><g transform="translate(114.106811, 254.203577)"><g/></g></g><g fill="#11101b" fill-opacity="1"><g transform="translate(119.442348, 254.203577)"><g><path d="M 1.109375 -8.46875 L 4.796875 -8.46875 C 5.671875 -8.46875 6.363281 -8.28125 6.875 -7.90625 C 7.382812 -7.53125 7.640625 -7.015625 7.640625 -6.359375 C 7.640625 -5.878906 7.503906 -5.472656 7.234375 -5.140625 C 6.972656 -4.804688 6.613281 -4.582031 6.15625 -4.46875 C 6.71875 -4.375 7.160156 -4.132812 7.484375 -3.75 C 7.804688 -3.375 7.96875 -2.898438 7.96875 -2.328125 C 7.96875 -1.597656 7.691406 -1.023438 7.140625 -0.609375 C 6.597656 -0.203125 5.84375 0 4.875 0 L 1.109375 0 Z M 2.546875 -7.203125 L 2.546875 -4.96875 L 4.71875 -4.96875 C 5.175781 -4.96875 5.53125 -5.066406 5.78125 -5.265625 C 6.039062 -5.460938 6.171875 -5.738281 6.171875 -6.09375 C 6.171875 -6.457031 6.039062 -6.734375 5.78125 -6.921875 C 5.53125 -7.109375 5.175781 -7.203125 4.71875 -7.203125 Z M 2.546875 -3.703125 L 2.546875 -1.265625 L 4.71875 -1.265625 C 5.28125 -1.265625 5.71875 -1.367188 6.03125 -1.578125 C 6.34375 -1.796875 6.5 -2.101562 6.5 -2.5 C 6.5 -2.875 6.34375 -3.164062 6.03125 -3.375 C 5.71875 -3.59375 5.28125 -3.703125 4.71875 -3.703125 Z M 2.546875 -3.703125 "/></g></g></g><g fill="#11101b" fill-opacity="1"><g transform="translate(130.195874, 254.203577)"><g><path d="M 1.703125 -7.28125 C 2.566406 -8.101562 3.632812 -8.515625 4.90625 -8.515625 C 6.175781 -8.515625 7.238281 -8.101562 8.09375 -7.28125 C 8.957031 -6.457031 9.390625 -5.441406 9.390625 -4.234375 C 9.390625 -3.023438 8.957031 -2.003906 8.09375 -1.171875 C 7.238281 -0.347656 6.175781 0.0625 4.90625 0.0625 C 3.632812 0.0625 2.566406 -0.347656 1.703125 -1.171875 C 0.835938 -2.003906 0.40625 -3.023438 0.40625 -4.234375 C 0.40625 -5.441406 0.835938 -6.457031 1.703125 -7.28125 Z M 4.921875 -7.234375 C 4.078125 -7.234375 3.351562 -6.941406 2.75 -6.359375 C 2.15625 -5.785156 1.859375 -5.078125 1.859375 -4.234375 C 1.859375 -3.398438 2.160156 -2.6875 2.765625 -2.09375 C 3.367188 -1.507812 4.082031 -1.21875 4.90625 -1.21875 C 5.738281 -1.21875 6.453125 -1.507812 7.046875 -2.09375 C 7.640625 -2.6875 7.9375 -3.398438 7.9375 -4.234375 C 7.9375 -5.078125 7.640625 -5.785156 7.046875 -6.359375 C 6.453125 -6.941406 5.742188 -7.234375 4.921875 -7.234375 Z M 4.921875 -7.234375 "/></g></g></g><g fill="#11101b" fill-opacity="1"><g transform="translate(142.20714, 254.203577)"><g><path d="M 8.3125 -8.46875 L 8.3125 -3.515625 C 8.3125 -2.410156 7.984375 -1.535156 7.328125 -0.890625 C 6.679688 -0.253906 5.785156 0.0625 4.640625 0.0625 C 3.492188 0.0625 2.585938 -0.253906 1.921875 -0.890625 C 1.265625 -1.535156 0.9375 -2.410156 0.9375 -3.515625 L 0.9375 -8.46875 L 2.375 -8.46875 L 2.375 -3.515625 C 2.375 -2.804688 2.578125 -2.242188 2.984375 -1.828125 C 3.390625 -1.421875 3.945312 -1.21875 4.65625 -1.21875 C 5.34375 -1.21875 5.882812 -1.421875 6.28125 -1.828125 C 6.6875 -2.234375 6.890625 -2.796875 6.890625 -3.515625 L 6.890625 -8.46875 Z M 8.3125 -8.46875 "/></g></g></g><g fill="#11101b" fill-opacity="1"><g transform="translate(153.662094, 254.203577)"><g><path d="M 6.90625 -7.1875 L 4.21875 -7.1875 L 4.21875 0 L 2.78125 0 L 2.78125 -7.1875 L 0.109375 -7.1875 L 0.109375 -8.46875 L 6.90625 -8.46875 Z M 6.90625 -7.1875 "/></g></g></g><g fill="#11101b" fill-opacity="1"><g transform="translate(162.879708, 254.203577)"><g><path d="M 2.546875 0 L 1.109375 0 L 1.109375 -8.46875 L 2.546875 -8.46875 Z M 2.546875 0 "/></g></g></g><g fill="#11101b" fill-opacity="1"><g transform="translate(168.747363, 254.203577)"><g><path d="M 9.328125 -0.078125 L 9.890625 0.9375 C 9.191406 1.550781 8.425781 1.859375 7.59375 1.859375 C 7.070312 1.859375 6.578125 1.703125 6.109375 1.390625 C 5.640625 1.078125 5.234375 0.632812 4.890625 0.0625 C 3.617188 0.0507812 2.550781 -0.363281 1.6875 -1.1875 C 0.832031 -2.007812 0.40625 -3.023438 0.40625 -4.234375 C 0.40625 -5.441406 0.835938 -6.457031 1.703125 -7.28125 C 2.566406 -8.101562 3.632812 -8.515625 4.90625 -8.515625 C 6.175781 -8.515625 7.238281 -8.101562 8.09375 -7.28125 C 8.957031 -6.457031 9.390625 -5.441406 9.390625 -4.234375 C 9.390625 -3.273438 9.109375 -2.425781 8.546875 -1.6875 C 7.992188 -0.945312 7.257812 -0.4375 6.34375 -0.15625 C 6.832031 0.363281 7.304688 0.625 7.765625 0.625 C 8.203125 0.625 8.722656 0.390625 9.328125 -0.078125 Z M 2.75 -6.359375 C 2.15625 -5.785156 1.859375 -5.078125 1.859375 -4.234375 C 1.859375 -3.398438 2.160156 -2.6875 2.765625 -2.09375 C 3.367188 -1.507812 4.082031 -1.21875 4.90625 -1.21875 C 5.738281 -1.21875 6.453125 -1.507812 7.046875 -2.09375 C 7.640625 -2.6875 7.9375 -3.398438 7.9375 -4.234375 C 7.9375 -5.078125 7.640625 -5.785156 7.046875 -6.359375 C 6.453125 -6.941406 5.742188 -7.234375 4.921875 -7.234375 C 4.078125 -7.234375 3.351562 -6.941406 2.75 -6.359375 Z M 2.75 -6.359375 "/></g></g></g><g fill="#11101b" fill-opacity="1"><g transform="translate(180.940041, 254.203577)"><g><path d="M 8.3125 -8.46875 L 8.3125 -3.515625 C 8.3125 -2.410156 7.984375 -1.535156 7.328125 -0.890625 C 6.679688 -0.253906 5.785156 0.0625 4.640625 0.0625 C 3.492188 0.0625 2.585938 -0.253906 1.921875 -0.890625 C 1.265625 -1.535156 0.9375 -2.410156 0.9375 -3.515625 L 0.9375 -8.46875 L 2.375 -8.46875 L 2.375 -3.515625 C 2.375 -2.804688 2.578125 -2.242188 2.984375 -1.828125 C 3.390625 -1.421875 3.945312 -1.21875 4.65625 -1.21875 C 5.34375 -1.21875 5.882812 -1.421875 6.28125 -1.828125 C 6.6875 -2.234375 6.890625 -2.796875 6.890625 -3.515625 L 6.890625 -8.46875 Z M 8.3125 -8.46875 "/></g></g></g><g fill="#11101b" fill-opacity="1"><g transform="translate(192.394992, 254.203577)"><g><path d="M 7.171875 -7.1875 L 2.546875 -7.1875 L 2.546875 -4.90625 L 6.6875 -4.90625 L 6.6875 -3.625 L 2.546875 -3.625 L 2.546875 -1.28125 L 7.3125 -1.28125 L 7.3125 0 L 1.109375 0 L 1.109375 -8.46875 L 7.171875 -8.46875 Z M 7.171875 -7.1875 "/></g></g></g><g fill="#11101b" fill-opacity="1"><g transform="translate(202.543818, 254.203577)"><g/></g></g><g fill="#11101b" fill-opacity="1"><g transform="translate(207.879351, 254.203577)"><g><path d="M 7.171875 -7.1875 L 2.546875 -7.1875 L 2.546875 -4.90625 L 6.6875 -4.90625 L 6.6875 -3.625 L 2.546875 -3.625 L 2.546875 -1.28125 L 7.3125 -1.28125 L 7.3125 0 L 1.109375 0 L 1.109375 -8.46875 L 7.171875 -8.46875 Z M 7.171875 -7.1875 "/></g></g></g><g fill="#11101b" fill-opacity="1"><g transform="translate(218.028177, 254.203577)"><g><path d="M 8.46875 0 L 7.0625 0 L 2.546875 -6.078125 L 2.546875 0 L 1.109375 0 L 1.109375 -8.46875 L 2.515625 -8.46875 L 7.0625 -2.390625 L 7.0625 -8.46875 L 8.46875 -8.46875 Z M 8.46875 0 "/></g></g></g><g fill="#11101b" fill-opacity="1"><g transform="translate(229.821747, 254.203577)"><g/></g></g><g fill="#11101b" fill-opacity="1"><g transform="translate(235.15728, 254.203577)"><g><path d="M 2.546875 -1.296875 L 6.21875 -1.296875 L 6.21875 0 L 1.109375 0 L 1.109375 -8.46875 L 2.546875 -8.46875 Z M 2.546875 -1.296875 "/></g></g></g><g fill="#11101b" fill-opacity="1"><g transform="translate(243.830677, 254.203577)"><g><path d="M 2.546875 0 L 1.109375 0 L 1.109375 -8.46875 L 2.546875 -8.46875 Z M 2.546875 0 "/></g></g></g><g fill="#11101b" fill-opacity="1"><g transform="translate(249.698325, 254.203577)"><g><path d="M 6.921875 -4.171875 L 8.15625 -4.171875 L 8.15625 -1.046875 C 7.71875 -0.710938 7.203125 -0.441406 6.609375 -0.234375 C 6.023438 -0.0351562 5.445312 0.0625 4.875 0.0625 C 3.613281 0.0625 2.550781 -0.347656 1.6875 -1.171875 C 0.832031 -2.003906 0.40625 -3.023438 0.40625 -4.234375 C 0.40625 -5.441406 0.84375 -6.457031 1.71875 -7.28125 C 2.59375 -8.101562 3.671875 -8.515625 4.953125 -8.515625 C 5.546875 -8.515625 6.128906 -8.40625 6.703125 -8.1875 C 7.285156 -7.976562 7.785156 -7.691406 8.203125 -7.328125 L 7.40625 -6.265625 C 6.707031 -6.910156 5.890625 -7.234375 4.953125 -7.234375 C 4.085938 -7.234375 3.351562 -6.941406 2.75 -6.359375 C 2.15625 -5.785156 1.859375 -5.078125 1.859375 -4.234375 C 1.859375 -3.390625 2.160156 -2.675781 2.765625 -2.09375 C 3.367188 -1.507812 4.101562 -1.21875 4.96875 -1.21875 C 5.625 -1.21875 6.273438 -1.410156 6.921875 -1.796875 Z M 6.921875 -4.171875 "/></g></g></g><g fill="#11101b" fill-opacity="1"><g transform="translate(260.971865, 254.203577)"><g><path d="M 8.46875 0 L 7.0625 0 L 2.546875 -6.078125 L 2.546875 0 L 1.109375 0 L 1.109375 -8.46875 L 2.515625 -8.46875 L 7.0625 -2.390625 L 7.0625 -8.46875 L 8.46875 -8.46875 Z M 8.46875 0 "/></g></g></g><g fill="#11101b" fill-opacity="1"><g transform="translate(272.765436, 254.203577)"><g><path d="M 7.171875 -7.1875 L 2.546875 -7.1875 L 2.546875 -4.90625 L 6.6875 -4.90625 L 6.6875 -3.625 L 2.546875 -3.625 L 2.546875 -1.28125 L 7.3125 -1.28125 L 7.3125 0 L 1.109375 0 L 1.109375 -8.46875 L 7.171875 -8.46875 Z M 7.171875 -7.1875 "/></g></g></g><g clip-path="url(#id1)"><path fill="#ffb929" d="M 224.980469 183.894531 L 219.679688 132.269531 C 219.253906 128.160156 215.804688 125.050781 211.679688 125.050781 L 203.449219 125.050781 L 203.449219 116.039062 C 203.449219 107.335938 196.375 100.234375 187.664062 100.234375 C 178.949219 100.234375 171.875 107.316406 171.875 116.039062 L 171.875 125.050781 L 163.644531 125.050781 C 159.523438 125.050781 156.070312 128.179688 155.648438 132.269531 L 150.347656 183.894531 C 149.789062 189.238281 153.988281 193.890625 159.347656 193.890625 L 215.9375 193.890625 C 221.335938 193.871094 225.539062 189.238281 224.980469 183.894531 Z M 176.714844 116.019531 C 176.714844 109.960938 181.628906 105.039062 187.683594 105.039062 C 193.734375 105.039062 198.648438 109.960938 198.648438 116.019531 L 198.648438 125.03125 L 176.714844 125.03125 Z M 206.417969 159.210938 C 206.148438 159.210938 205.878906 159.171875 205.625 159.09375 C 196.703125 170.421875 178.660156 170.421875 169.71875 159.09375 C 169.46875 159.152344 169.199219 159.210938 168.925781 159.210938 C 167.097656 159.210938 165.632812 157.726562 165.632812 155.910156 C 165.632812 154.078125 167.117188 152.609375 168.925781 152.609375 C 170.757812 152.609375 172.222656 154.097656 172.222656 155.910156 C 172.222656 156.414062 172.109375 156.894531 171.894531 157.320312 C 180.957031 165.597656 194.371094 165.597656 203.410156 157.320312 C 203.21875 156.894531 203.082031 156.414062 203.082031 155.910156 C 203.082031 154.078125 204.566406 152.609375 206.378906 152.609375 C 208.210938 152.609375 209.675781 154.097656 209.675781 155.910156 C 209.734375 157.726562 208.25 159.210938 206.417969 159.210938 Z M 206.417969 159.210938 " fill-opacity="1" fill-rule="nonzero"/></g></svg>